# xmcd
#
# Track frame offsets:
# 150
# 9989
# 20525
# 28065
# 41311
# 65897
# 80376
# 87896
# 105551
# 117821
# 134062
# 151968
#
# Disc length: 2430 seconds
#
#
# Revision: 0
# Processed by: cddbd v1.5.2PL0 Copyright (c) Steve Scherf et al.
# Submitted via: FreeRIP 2.945 
#
DISCID=91097c0c
DTITLE=Prince - Parade
DYEAR=1900
DGENRE=R&B
TTITLE0=Christopher Tracy's Parade
TTITLE1=New Position
TTITLE2=I Wonder U
TTITLE3=Under the Cherry Moon
TTITLE4=Girls and Boys
TTITLE5=Life Can Be So Nice
TTITLE6=Venus de Milo
TTITLE7=Mountains
TTITLE8=Do U Lie?
TTITLE9=Kiss
TTITLE10=Anotherloverholenyohead
TTITLE11=Sometimes It Snows in April
EXTD=
EXTT0=
EXTT1=
EXTT2=
EXTT3=
EXTT4=
EXTT5=
EXTT6=
EXTT7=
EXTT8=
EXTT9=
EXTT10=
EXTT11=
PLAYORDER=
